<?xml version="1.0" encoding="UTF-8"?>
<svg width="64px" height="64px" viewBox="0 0 64 64" version="1.1" xmlns="http://www.w3.org/2000/svg" xmlns:xlink="http://www.w3.org/1999/xlink">
    <!-- Generator: Sketch 53.2 (72643) - https://sketchapp.com -->
    <title>Artboard Copy</title>
    <desc>Created with Sketch.</desc>
    <g id="Artboard-Copy" stroke="none" stroke-width="1" fill="none" fill-rule="evenodd">
        <circle id="Oval" fill="#0E2B5C" cx="32" cy="32" r="32"></circle>
        <g id="2" transform="translate(14.000000, 18.000000)" fill-rule="nonzero">
            <path d="M35.28,14.4 L31.56,2.4 C31.2719322,1.07769823 30.1494923,0.101663536 28.8,1.77635684e-15 L7.2,1.77635684e-15 C6,1.77635684e-15 4.98,0.78 4.44,2.4 L0.72,14.4 L35.28,14.4 Z" id="Path" fill="#FFFFFF"></path>
            <path d="M0,26.4 C0,27.0627417 0.5372583,27.6 1.2,27.6 L34.8,27.6 C35.4627417,27.6 36,27.0627417 36,26.4 L36,16.8 L0,16.8 L0,26.4 Z M29.16,18.36 C29.6382971,17.9321981 30.3617029,17.9321981 30.84,18.36 C31.0660971,18.5815566 31.1954915,18.8834769 31.2,19.2 C31.2,19.8627417 30.6627417,20.4 30,20.4 C29.3372583,20.4 28.8,19.8627417 28.8,19.2 C28.8045085,18.8834769 28.9339029,18.5815566 29.16,18.36 L29.16,18.36 Z M6,21.6 L30,21.6 C30.6627417,21.6 31.2,22.1372583 31.2,22.8 C31.2,23.4627417 30.6627417,24 30,24 L6,24 C5.3372583,24 4.8,23.4627417 4.8,22.8 C4.8,22.1372583 5.3372583,21.6 6,21.6 Z" id="Shape" fill="#82B541"></path>
        </g>
    </g>
</svg>